<?xml version="1.0" standalone="no"?>
<!DOCTYPE svg PUBLIC "-//W3C//DTD SVG 20010904//EN"
 "http://www.w3.org/TR/2001/REC-SVG-20010904/DTD/svg10.dtd">
<svg version="1.0" xmlns="http://www.w3.org/2000/svg"
 width="800.000000pt" height="800.000000pt" viewBox="0 0 800.000000 800.000000"
 preserveAspectRatio="xMidYMid meet">
<metadata>
Created by potrace 1.14, written by Peter Selinger 2001-2017
</metadata>
<g transform="translate(0.000000,800.000000) scale(0.100000,-0.100000)"
fill="#000000" stroke="none">
<path d="M3725 7989 c-1144 -87 -2158 -625 -2867 -1520 -1015 -1280 -1138
-3093 -305 -4499 601 -1014 1623 -1721 2765 -1914 268 -45 467 -59 767 -53
286 7 350 12 591 52 1008 168 1922 730 2541 1562 81 108 233 339 233 352 0 7
-188 121 -198 121 -4 -1 -48 -65 -99 -143 -405 -624 -995 -1120 -1679 -1411
-447 -190 -874 -280 -1375 -293 -263 -6 -438 4 -659 37 -986 149 -1854 672
-2462 1484 -632 844 -873 1942 -658 2998 99 484 309 972 593 1378 364 520 834
930 1387 1210 418 211 821 331 1295 386 180 21 592 24 765 6 802 -85 1507
-387 2105 -905 133 -115 179 -162 150 -154 -11 4 -121 31 -245 62 -172 43
-237 56 -277 53 -178 -15 -251 -266 -105 -363 27 -18 185 -61 602 -165 545
-136 566 -140 613 -129 88 21 156 105 157 193 0 34 -171 977 -201 1110 -13 53
-55 108 -101 132 -35 18 -121 20 -163 4 -78 -30 -134 -105 -135 -180 0 -19 24
-162 53 -317 29 -156 51 -283 49 -283 -2 0 -54 48 -115 106 -564 538 -1293
903 -2065 1034 -287 49 -694 70 -957 49z"/>
<path d="M3920 7007 c-48 -25 -90 -89 -90 -136 0 -41 41 -113 79 -138 41 -28
108 -30 157 -7 50 24 77 68 82 133 5 70 -22 115 -88 149 -56 28 -86 28 -140
-1z"/>
<path d="M2756 4694 c-85 -31 -146 -101 -172 -195 -7 -30 -14 -100 -14 -157
l0 -103 98 3 97 3 5 105 c7 144 25 170 115 170 83 0 115 -63 102 -205 -11
-119 -61 -209 -202 -365 -175 -195 -206 -262 -213 -462 l-4 -138 306 0 306 0
0 95 0 95 -200 0 -200 0 0 38 c0 59 41 127 151 252 221 251 277 370 267 570
-8 154 -65 249 -175 290 -65 24 -207 26 -267 4z"/>
<path d="M3661 4678 c-5 -13 -93 -221 -195 -463 l-187 -440 3 -90 3 -90 203
-3 202 -2 0 -120 0 -120 105 0 105 0 0 120 0 120 50 0 50 0 0 100 0 100 -50 0
-50 0 0 455 0 455 -115 0 c-111 0 -116 -1 -124 -22z m25 -885 c-2 -2 -49 -2
-104 -1 l-100 3 101 241 102 242 3 -241 c1 -132 1 -242 -2 -244z"/>
<path d="M4299 4025 l-266 -675 91 0 91 0 263 668 c144 367 262 670 262 675 0
4 -39 7 -87 7 l-88 0 -266 -675z"/>
<path d="M4820 4605 l0 -95 210 0 c151 0 210 -3 210 -11 0 -7 -67 -263 -150
-570 -82 -307 -150 -563 -150 -569 0 -6 40 -10 103 -10 l103 0 157 588 c147
548 157 593 157 675 l0 87 -320 0 -320 0 0 -95z"/>
<path d="M1060 4147 c-48 -25 -90 -89 -90 -136 0 -41 41 -113 79 -138 41 -28
108 -30 157 -7 50 24 77 68 82 133 5 70 -22 115 -88 149 -56 28 -86 28 -140
-1z"/>
<path d="M6770 4137 c-48 -25 -90 -89 -90 -136 0 -41 41 -113 79 -138 41 -28
108 -30 157 -7 50 24 77 68 82 133 5 70 -22 115 -88 149 -56 28 -86 28 -140
-1z"/>
<path d="M3920 1507 c-48 -25 -90 -89 -90 -136 0 -41 41 -113 79 -138 41 -28
108 -30 157 -7 50 24 77 68 82 133 5 70 -22 115 -88 149 -56 28 -86 28 -140
-1z"/>
</g>
</svg>
